<svg width="36" height="36" viewBox="0 0 36 36" fill="none" xmlns="http://www.w3.org/2000/svg">
<path d="M34.6414 0H1.35861C0.608272 0 0 0.60827 0 1.35861V34.6414C0 35.3917 0.60827 36 1.35861 36H34.6414C35.3917 36 36 35.3917 36 34.6414V1.35861C36 0.608272 35.3917 0 34.6414 0Z" fill="#001DFC"/>
<g clip-path="url(#clip0_534_42755)">
<path d="M14.3428 15.4577C14.9717 15.4577 15.4815 14.9511 15.4815 14.3263C15.4815 13.7014 14.9717 13.1948 14.3428 13.1948C13.7139 13.1948 13.2041 13.7014 13.2041 14.3263C13.2041 14.9511 13.7139 15.4577 14.3428 15.4577Z" fill="white"/>
<path d="M14.3438 15.4577C14.9726 15.4577 15.4825 14.9511 15.4825 14.3263C15.4825 13.7014 14.9726 13.1948 14.3438 13.1948C13.7149 13.1948 13.2051 13.7014 13.2051 14.3263C13.2051 14.9511 13.7149 15.4577 14.3438 15.4577Z" fill="white"/>
<path d="M20.7481 24.9787C21.3769 24.9787 21.8868 24.4721 21.8868 23.8473C21.8868 23.2224 21.3769 22.7158 20.7481 22.7158C20.1192 22.7158 19.6094 23.2224 19.6094 23.8473C19.6094 24.4721 20.1192 24.9787 20.7481 24.9787Z" fill="white"/>
<path d="M17.543 21.8054C18.1719 21.8054 18.6817 21.2988 18.6817 20.6739C18.6817 20.049 18.1719 19.5425 17.543 19.5425C16.9141 19.5425 16.4043 20.049 16.4043 20.6739C16.4043 21.2988 16.9141 21.8054 17.543 21.8054Z" fill="white"/>
<path d="M23.958 24.9787C24.5869 24.9787 25.0967 24.4721 25.0967 23.8473C25.0967 23.2224 24.5869 22.7158 23.958 22.7158C23.3291 22.7158 22.8193 23.2224 22.8193 23.8473C22.8193 24.4721 23.3291 24.9787 23.958 24.9787Z" fill="white"/>
<path d="M20.7529 21.8054C21.3818 21.8054 21.8916 21.2988 21.8916 20.6739C21.8916 20.049 21.3818 19.5425 20.7529 19.5425C20.1241 19.5425 19.6143 20.049 19.6143 20.6739C19.6143 21.2988 20.1241 21.8054 20.7529 21.8054Z" fill="white"/>
<path d="M17.5391 24.9753C18.168 24.9753 18.6778 24.4687 18.6778 23.8438C18.6778 23.219 18.168 22.7124 17.5391 22.7124C16.9102 22.7124 16.4004 23.219 16.4004 23.8438C16.4004 24.4687 16.9102 24.9753 17.5391 24.9753Z" fill="#12EBC7"/>
<path d="M17.543 21.8054C18.1719 21.8054 18.6817 21.2988 18.6817 20.6739C18.6817 20.049 18.1719 19.5425 17.543 19.5425C16.9141 19.5425 16.4043 20.049 16.4043 20.6739C16.4043 21.2988 16.9141 21.8054 17.543 21.8054Z" fill="#12EBC7"/>
<path d="M14.3486 24.9894C14.9775 24.9894 15.4873 24.4829 15.4873 23.858C15.4873 23.2331 14.9775 22.7266 14.3486 22.7266C13.7198 22.7266 13.21 23.2331 13.21 23.858C13.21 24.4829 13.7198 24.9894 14.3486 24.9894Z" fill="white"/>
<path d="M14.3486 24.9894C14.9775 24.9894 15.4873 24.4829 15.4873 23.858C15.4873 23.2331 14.9775 22.7266 14.3486 22.7266C13.7198 22.7266 13.21 23.2331 13.21 23.858C13.21 24.4829 13.7198 24.9894 14.3486 24.9894Z" fill="white"/>
<path d="M20.7529 21.8054C21.3818 21.8054 21.8916 21.2988 21.8916 20.6739C21.8916 20.049 21.3818 19.5425 20.7529 19.5425C20.1241 19.5425 19.6143 20.049 19.6143 20.6739C19.6143 21.2988 20.1241 21.8054 20.7529 21.8054Z" fill="white"/>
<path d="M11.1602 25.0002C11.7891 25.0002 12.2989 24.4936 12.2989 23.8687C12.2989 23.2439 11.7891 22.7373 11.1602 22.7373C10.5313 22.7373 10.0215 23.2439 10.0215 23.8687C10.0215 24.4936 10.5313 25.0002 11.1602 25.0002Z" fill="white"/>
<path d="M14.3545 21.8156C14.9834 21.8156 15.4932 21.309 15.4932 20.6842C15.4932 20.0593 14.9834 19.5527 14.3545 19.5527C13.7256 19.5527 13.2158 20.0593 13.2158 20.6842C13.2158 21.309 13.7256 21.8156 14.3545 21.8156Z" fill="white"/>
<path d="M14.3535 21.8156C14.9824 21.8156 15.4922 21.309 15.4922 20.6842C15.4922 20.0593 14.9824 19.5527 14.3535 19.5527C13.7247 19.5527 13.2148 20.0593 13.2148 20.6842C13.2148 21.309 13.7247 21.8156 14.3535 21.8156Z" fill="white"/>
<path d="M23.9365 15.4416C24.5654 15.4416 25.0752 14.935 25.0752 14.3101C25.0752 13.6853 24.5654 13.1787 23.9365 13.1787C23.3077 13.1787 22.7979 13.6853 22.7979 14.3101C22.7979 14.935 23.3077 15.4416 23.9365 15.4416Z" fill="#12EBC7"/>
<path d="M20.7422 18.6262C21.3711 18.6262 21.8809 18.1196 21.8809 17.4947C21.8809 16.8698 21.3711 16.3633 20.7422 16.3633C20.1133 16.3633 19.6035 16.8698 19.6035 17.4947C19.6035 18.1196 20.1133 18.6262 20.7422 18.6262Z" fill="white"/>
<path d="M23.9326 18.6393C24.5615 18.6393 25.0713 18.1328 25.0713 17.5079C25.0713 16.883 24.5615 16.3765 23.9326 16.3765C23.3038 16.3765 22.7939 16.883 22.7939 17.5079C22.7939 18.1328 23.3038 18.6393 23.9326 18.6393Z" fill="#12EBC7"/>
<path d="M20.7422 18.6364C21.3711 18.6364 21.8809 18.1298 21.8809 17.505C21.8809 16.8801 21.3711 16.3735 20.7422 16.3735C20.1133 16.3735 19.6035 16.8801 19.6035 17.505C19.6035 18.1298 20.1133 18.6364 20.7422 18.6364Z" fill="white"/>
<path d="M23.9473 21.8097C24.5762 21.8097 25.086 21.3032 25.086 20.6783C25.086 20.0534 24.5762 19.5469 23.9473 19.5469C23.3184 19.5469 22.8086 20.0534 22.8086 20.6783C22.8086 21.3032 23.3184 21.8097 23.9473 21.8097Z" fill="white"/>
<path d="M23.9463 21.8102C24.5752 21.8102 25.085 21.3037 25.085 20.6788C25.085 20.0539 24.5752 19.5474 23.9463 19.5474C23.3174 19.5474 22.8076 20.0539 22.8076 20.6788C22.8076 21.3037 23.3174 21.8102 23.9463 21.8102Z" fill="#12EBC7"/>
<path d="M23.958 24.9787C24.5869 24.9787 25.0967 24.4721 25.0967 23.8473C25.0967 23.2224 24.5869 22.7158 23.958 22.7158C23.3291 22.7158 22.8193 23.2224 22.8193 23.8473C22.8193 24.4721 23.3291 24.9787 23.958 24.9787Z" fill="#12EBC7"/>
<path d="M20.7529 21.8054C21.3818 21.8054 21.8916 21.2988 21.8916 20.6739C21.8916 20.049 21.3818 19.5425 20.7529 19.5425C20.1241 19.5425 19.6143 20.049 19.6143 20.6739C19.6143 21.2988 20.1241 21.8054 20.7529 21.8054Z" fill="white"/>
<path d="M20.7529 21.8054C21.3818 21.8054 21.8916 21.2988 21.8916 20.6739C21.8916 20.049 21.3818 19.5425 20.7529 19.5425C20.1241 19.5425 19.6143 20.049 19.6143 20.6739C19.6143 21.2988 20.1241 21.8054 20.7529 21.8054Z" fill="white"/>
<path d="M14.3535 18.6262C14.9824 18.6262 15.4922 18.1196 15.4922 17.4947C15.4922 16.8698 14.9824 16.3633 14.3535 16.3633C13.7247 16.3633 13.2148 16.8698 13.2148 17.4947C13.2148 18.1196 13.7247 18.6262 14.3535 18.6262Z" fill="white"/>
<path d="M11.1602 25.0002C11.7891 25.0002 12.2989 24.4936 12.2989 23.8687C12.2989 23.2439 11.7891 22.7373 11.1602 22.7373C10.5313 22.7373 10.0215 23.2439 10.0215 23.8687C10.0215 24.4936 10.5313 25.0002 11.1602 25.0002Z" fill="#12EBC7"/>
<path d="M14.3545 21.8156C14.9834 21.8156 15.4932 21.309 15.4932 20.6842C15.4932 20.0593 14.9834 19.5527 14.3545 19.5527C13.7256 19.5527 13.2158 20.0593 13.2158 20.6842C13.2158 21.309 13.7256 21.8156 14.3545 21.8156Z" fill="white"/>
<path d="M14.3535 18.6262C14.9824 18.6262 15.4922 18.1196 15.4922 17.4947C15.4922 16.8698 14.9824 16.3633 14.3535 16.3633C13.7247 16.3633 13.2148 16.8698 13.2148 17.4947C13.2148 18.1196 13.7247 18.6262 14.3535 18.6262Z" fill="white"/>
<path d="M14.3535 21.8156C14.9824 21.8156 15.4922 21.309 15.4922 20.6842C15.4922 20.0593 14.9824 19.5527 14.3535 19.5527C13.7247 19.5527 13.2148 20.0593 13.2148 20.6842C13.2148 21.309 13.7247 21.8156 14.3535 21.8156Z" fill="white"/>
<path d="M14.3428 15.4577C14.9717 15.4577 15.4815 14.9511 15.4815 14.3263C15.4815 13.7014 14.9717 13.1948 14.3428 13.1948C13.7139 13.1948 13.2041 13.7014 13.2041 14.3263C13.2041 14.9511 13.7139 15.4577 14.3428 15.4577Z" fill="white"/>
<path d="M14.3438 15.4577C14.9726 15.4577 15.4825 14.9511 15.4825 14.3263C15.4825 13.7014 14.9726 13.1948 14.3438 13.1948C13.7149 13.1948 13.2051 13.7014 13.2051 14.3263C13.2051 14.9511 13.7149 15.4577 14.3438 15.4577Z" fill="white"/>
</g>
<defs>
<clipPath id="clip0_534_42755">
<rect width="15.0962" height="15" fill="white" transform="translate(10 10)"/>
</clipPath>
</defs>
</svg>
